<mxfile host="Electron" modified="2024-04-09T10:37:49.786Z" agent="Mozilla/5.0 (Macintosh; Intel Mac OS X 10_15_7) AppleWebKit/537.36 (KHTML, like Gecko) draw.io/24.1.0 Chrome/120.0.6099.109 Electron/28.1.0 Safari/537.36" etag="G26HIYJLiILgZgvI4I3S" version="24.1.0" type="device">
  <diagram name="Page-1" id="taXIZowhl7YlFWf81Rlo">
    <mxGraphModel dx="1193" dy="756" grid="1" gridSize="10" guides="1" tooltips="1" connect="1" arrows="1" fold="1" page="1" pageScale="1" pageWidth="827" pageHeight="1169" math="0" shadow="0">
      <root>
        <mxCell id="0" />
        <mxCell id="1" parent="0" />
        <mxCell id="ANdL-U6sLeqt7lSqCTyV-19" value="" style="edgeStyle=orthogonalEdgeStyle;rounded=0;orthogonalLoop=1;jettySize=auto;html=1;" edge="1" parent="1" source="ANdL-U6sLeqt7lSqCTyV-2" target="ANdL-U6sLeqt7lSqCTyV-5">
          <mxGeometry relative="1" as="geometry" />
        </mxCell>
        <mxCell id="ANdL-U6sLeqt7lSqCTyV-2" value="" style="rounded=1;whiteSpace=wrap;html=1;arcSize=50;" vertex="1" parent="1">
          <mxGeometry x="260" y="290" width="140" height="50" as="geometry" />
        </mxCell>
        <mxCell id="ANdL-U6sLeqt7lSqCTyV-3" value="&lt;font style=&quot;font-size: 18px;&quot;&gt;start&lt;/font&gt;" style="text;html=1;align=center;verticalAlign=middle;whiteSpace=wrap;rounded=0;" vertex="1" parent="1">
          <mxGeometry x="290" y="297.5" width="90" height="35" as="geometry" />
        </mxCell>
        <mxCell id="ANdL-U6sLeqt7lSqCTyV-20" value="" style="edgeStyle=orthogonalEdgeStyle;rounded=0;orthogonalLoop=1;jettySize=auto;html=1;" edge="1" parent="1" source="ANdL-U6sLeqt7lSqCTyV-4" target="ANdL-U6sLeqt7lSqCTyV-7">
          <mxGeometry relative="1" as="geometry" />
        </mxCell>
        <mxCell id="ANdL-U6sLeqt7lSqCTyV-4" value="" style="shape=parallelogram;perimeter=parallelogramPerimeter;whiteSpace=wrap;html=1;fixedSize=1;size=20;" vertex="1" parent="1">
          <mxGeometry x="255" y="390" width="150" height="70" as="geometry" />
        </mxCell>
        <mxCell id="ANdL-U6sLeqt7lSqCTyV-5" value="spÃ¸r om alder" style="text;html=1;align=center;verticalAlign=middle;whiteSpace=wrap;rounded=0;" vertex="1" parent="1">
          <mxGeometry x="285" y="410" width="90" height="30" as="geometry" />
        </mxCell>
        <mxCell id="ANdL-U6sLeqt7lSqCTyV-21" value="" style="edgeStyle=orthogonalEdgeStyle;rounded=0;orthogonalLoop=1;jettySize=auto;html=1;" edge="1" parent="1" source="ANdL-U6sLeqt7lSqCTyV-6" target="ANdL-U6sLeqt7lSqCTyV-9">
          <mxGeometry relative="1" as="geometry" />
        </mxCell>
        <mxCell id="ANdL-U6sLeqt7lSqCTyV-23" value="" style="edgeStyle=orthogonalEdgeStyle;rounded=0;orthogonalLoop=1;jettySize=auto;html=1;" edge="1" parent="1" source="ANdL-U6sLeqt7lSqCTyV-6" target="ANdL-U6sLeqt7lSqCTyV-11">
          <mxGeometry relative="1" as="geometry" />
        </mxCell>
        <mxCell id="ANdL-U6sLeqt7lSqCTyV-6" value="" style="rhombus;whiteSpace=wrap;html=1;" vertex="1" parent="1">
          <mxGeometry x="267.5" y="511.5" width="125" height="115" as="geometry" />
        </mxCell>
        <mxCell id="ANdL-U6sLeqt7lSqCTyV-7" value="alder &amp;lt; 16" style="text;html=1;align=center;verticalAlign=middle;whiteSpace=wrap;rounded=0;" vertex="1" parent="1">
          <mxGeometry x="300" y="554" width="60" height="30" as="geometry" />
        </mxCell>
        <mxCell id="ANdL-U6sLeqt7lSqCTyV-22" value="" style="edgeStyle=orthogonalEdgeStyle;rounded=0;orthogonalLoop=1;jettySize=auto;html=1;" edge="1" parent="1" source="ANdL-U6sLeqt7lSqCTyV-8" target="ANdL-U6sLeqt7lSqCTyV-13">
          <mxGeometry relative="1" as="geometry" />
        </mxCell>
        <mxCell id="ANdL-U6sLeqt7lSqCTyV-8" value="" style="rhombus;whiteSpace=wrap;html=1;" vertex="1" parent="1">
          <mxGeometry x="455" y="511.5" width="120" height="118.5" as="geometry" />
        </mxCell>
        <mxCell id="ANdL-U6sLeqt7lSqCTyV-9" value="alder &amp;lt; 67" style="text;html=1;align=center;verticalAlign=middle;whiteSpace=wrap;rounded=0;" vertex="1" parent="1">
          <mxGeometry x="485" y="554" width="60" height="30" as="geometry" />
        </mxCell>
        <mxCell id="ANdL-U6sLeqt7lSqCTyV-25" value="" style="edgeStyle=orthogonalEdgeStyle;rounded=0;orthogonalLoop=1;jettySize=auto;html=1;" edge="1" parent="1" source="ANdL-U6sLeqt7lSqCTyV-10" target="ANdL-U6sLeqt7lSqCTyV-17">
          <mxGeometry relative="1" as="geometry" />
        </mxCell>
        <mxCell id="ANdL-U6sLeqt7lSqCTyV-10" value="" style="shape=parallelogram;perimeter=parallelogramPerimeter;whiteSpace=wrap;html=1;fixedSize=1;" vertex="1" parent="1">
          <mxGeometry x="270" y="680" width="120" height="60" as="geometry" />
        </mxCell>
        <mxCell id="ANdL-U6sLeqt7lSqCTyV-11" value="print 30 kr" style="text;html=1;align=center;verticalAlign=middle;whiteSpace=wrap;rounded=0;" vertex="1" parent="1">
          <mxGeometry x="300" y="695" width="60" height="30" as="geometry" />
        </mxCell>
        <mxCell id="ANdL-U6sLeqt7lSqCTyV-12" value="" style="shape=parallelogram;perimeter=parallelogramPerimeter;whiteSpace=wrap;html=1;fixedSize=1;" vertex="1" parent="1">
          <mxGeometry x="455" y="680" width="120" height="60" as="geometry" />
        </mxCell>
        <mxCell id="ANdL-U6sLeqt7lSqCTyV-13" value="print 50 kr" style="text;html=1;align=center;verticalAlign=middle;whiteSpace=wrap;rounded=0;" vertex="1" parent="1">
          <mxGeometry x="485" y="695" width="60" height="30" as="geometry" />
        </mxCell>
        <mxCell id="ANdL-U6sLeqt7lSqCTyV-14" value="" style="shape=parallelogram;perimeter=parallelogramPerimeter;whiteSpace=wrap;html=1;fixedSize=1;" vertex="1" parent="1">
          <mxGeometry x="650" y="680" width="120" height="60" as="geometry" />
        </mxCell>
        <mxCell id="ANdL-U6sLeqt7lSqCTyV-15" value="print 35 kr" style="text;html=1;align=center;verticalAlign=middle;whiteSpace=wrap;rounded=0;" vertex="1" parent="1">
          <mxGeometry x="680" y="695" width="60" height="30" as="geometry" />
        </mxCell>
        <mxCell id="ANdL-U6sLeqt7lSqCTyV-16" value="" style="rounded=1;whiteSpace=wrap;html=1;arcSize=50;" vertex="1" parent="1">
          <mxGeometry x="267.5" y="810" width="120" height="60" as="geometry" />
        </mxCell>
        <mxCell id="ANdL-U6sLeqt7lSqCTyV-17" value="slutt" style="text;html=1;align=center;verticalAlign=middle;whiteSpace=wrap;rounded=0;" vertex="1" parent="1">
          <mxGeometry x="300" y="825" width="60" height="30" as="geometry" />
        </mxCell>
        <mxCell id="ANdL-U6sLeqt7lSqCTyV-28" value="" style="endArrow=none;html=1;rounded=0;exitX=1;exitY=0.5;exitDx=0;exitDy=0;" edge="1" parent="1" source="ANdL-U6sLeqt7lSqCTyV-8">
          <mxGeometry width="50" height="50" relative="1" as="geometry">
            <mxPoint x="630" y="650" as="sourcePoint" />
            <mxPoint x="720" y="570" as="targetPoint" />
          </mxGeometry>
        </mxCell>
        <mxCell id="ANdL-U6sLeqt7lSqCTyV-29" value="" style="endArrow=none;html=1;rounded=0;exitX=0.588;exitY=0.035;exitDx=0;exitDy=0;exitPerimeter=0;" edge="1" parent="1" source="ANdL-U6sLeqt7lSqCTyV-14">
          <mxGeometry width="50" height="50" relative="1" as="geometry">
            <mxPoint x="670" y="650" as="sourcePoint" />
            <mxPoint x="720" y="570" as="targetPoint" />
          </mxGeometry>
        </mxCell>
        <mxCell id="ANdL-U6sLeqt7lSqCTyV-30" value="" style="endArrow=none;html=1;rounded=0;" edge="1" parent="1">
          <mxGeometry width="50" height="50" relative="1" as="geometry">
            <mxPoint x="720" y="780" as="sourcePoint" />
            <mxPoint x="330" y="780" as="targetPoint" />
          </mxGeometry>
        </mxCell>
        <mxCell id="ANdL-U6sLeqt7lSqCTyV-31" value="" style="endArrow=none;html=1;rounded=0;entryX=0.5;entryY=1;entryDx=0;entryDy=0;" edge="1" parent="1" target="ANdL-U6sLeqt7lSqCTyV-12">
          <mxGeometry width="50" height="50" relative="1" as="geometry">
            <mxPoint x="515" y="780" as="sourcePoint" />
            <mxPoint x="540" y="660" as="targetPoint" />
          </mxGeometry>
        </mxCell>
        <mxCell id="ANdL-U6sLeqt7lSqCTyV-32" value="" style="endArrow=none;html=1;rounded=0;entryX=0.572;entryY=0.974;entryDx=0;entryDy=0;entryPerimeter=0;" edge="1" parent="1" target="ANdL-U6sLeqt7lSqCTyV-14">
          <mxGeometry width="50" height="50" relative="1" as="geometry">
            <mxPoint x="720" y="780" as="sourcePoint" />
            <mxPoint x="640" y="670" as="targetPoint" />
          </mxGeometry>
        </mxCell>
      </root>
    </mxGraphModel>
  </diagram>
</mxfile>
